<svg width="28" height="28" viewBox="0 0 28 28" fill="none" xmlns="http://www.w3.org/2000/svg">
<path d="M4.2525 20.14C5.29936 21.7164 6.72086 23.0087 8.38971 23.9009C10.0585 24.7931 11.9226 25.2575 13.815 25.2525C20.1113 25.2525 25.2163 20.2213 25.2163 14.015C25.2163 8.5075 21.1938 3.91625 15.875 2.96C16.1875 4.11 16.3487 5.30625 16.3487 6.5225C16.3487 13.495 11.0788 19.2525 4.2525 20.14ZM2.22125 17.76H2.41375C8.71 17.76 13.8138 12.73 13.8138 6.5225C13.8138 4.955 13.4888 3.435 12.8675 2.03L12.0788 0.25L14.0488 0.2825C21.6463 0.40625 27.75 6.51625 27.75 14.015C27.75 21.6013 21.5113 27.75 13.815 27.75C8.2225 27.75 3.23875 24.4725 1.04 19.5075L0.25 17.7275L2.22125 17.76Z" fill="white"/>
</svg>
