<svg width="24" height="24" viewBox="0 0 24 24" fill="none" xmlns="http://www.w3.org/2000/svg">
<path fill-rule="evenodd" clip-rule="evenodd" d="M11.5873 0C11.8537 3.64314e-05 12.0806 0.0965947 12.27 0.28319C12.4582 0.473219 12.553 0.701717 12.553 0.965595V2.89679C12.553 3.16406 12.4582 3.39241 12.2702 3.57919C12.0806 3.76907 11.8536 3.86563 11.5871 3.86563C11.3203 3.86563 11.0934 3.76907 10.9038 3.57919C10.7158 3.39241 10.6209 3.16391 10.6209 2.89679V0.965595C10.6209 0.701717 10.7158 0.473064 10.9038 0.28319C11.0935 0.0965595 11.3205 0 11.5873 0ZM19.7793 3.39565C19.5885 3.20581 19.3619 3.10925 19.1004 3.10922C18.8337 3.10922 18.6054 3.20578 18.4135 3.39565L17.0489 4.76046C16.8627 4.94709 16.7703 5.17235 16.7703 5.43947C16.7703 5.71632 16.8615 5.94807 17.0453 6.13161C17.2293 6.31175 17.4583 6.40506 17.7356 6.40506C18.0029 6.40506 18.229 6.31175 18.4144 6.12512L19.7793 4.76046C19.971 4.57043 20.0663 4.34209 20.0663 4.07481C20.0663 3.81418 19.971 3.58568 19.7793 3.39565ZM22.2084 10.6215H20.2772C20.0107 10.6215 19.7834 10.7149 19.5939 10.9047C19.4058 11.0946 19.3108 11.3199 19.3108 11.5871C19.3108 11.8543 19.4058 12.0828 19.5939 12.2695C19.7834 12.4594 20.0107 12.5527 20.2772 12.5527H22.2084C22.4749 12.5527 22.7028 12.4594 22.8908 12.2695C23.0804 12.0828 23.1743 11.8544 23.1743 11.5871C23.1743 11.32 23.0804 11.0948 22.8908 10.9047C22.7028 10.7149 22.4749 10.6215 22.2084 10.6215ZM4.76077 3.39565C4.56935 3.20592 4.34306 3.10937 4.08191 3.10922C3.81506 3.10937 3.58739 3.20592 3.39951 3.39241C3.20995 3.58228 3.11601 3.80754 3.11601 4.07481C3.11601 4.34842 3.2084 4.57692 3.39503 4.76355L4.76015 6.12836C4.94524 6.31175 5.17435 6.40506 5.44611 6.40506C5.71323 6.40506 5.9405 6.3119 6.12898 6.12187C6.31793 5.93524 6.41202 5.70675 6.41202 5.43947C6.41202 5.17883 6.31731 4.95034 6.12543 4.76046L4.76077 3.39565ZM17.7356 16.7627C17.997 16.7627 18.2233 16.856 18.4144 17.0492L19.7793 18.414C19.971 18.6071 20.0663 18.8324 20.0663 19.0995C20.0663 19.3603 19.971 19.5888 19.7793 19.7786C19.5883 19.9718 19.3618 20.0651 19.1004 20.0651C18.8339 20.0651 18.6054 19.9718 18.4135 19.7786L17.0489 18.414C16.8627 18.2304 16.7703 18.0019 16.7703 17.7348C16.7703 17.4675 16.8644 17.239 17.0533 17.0492C17.2418 16.8593 17.4699 16.7627 17.7362 16.7627H17.7356ZM8.85629 8.85768C9.61158 8.10146 10.5209 7.7248 11.5871 7.72476C12.6535 7.72476 13.5631 8.10142 14.3186 8.85768C15.0721 9.61084 15.4495 10.5217 15.4495 11.5871C15.4495 12.6527 15.0721 13.5636 14.3186 14.3197C13.5631 15.0729 12.6535 15.4495 11.5871 15.4495C10.521 15.4495 9.61177 15.0727 8.85629 14.3199C8.10204 13.5634 7.72461 12.6525 7.72461 11.5871C7.72461 10.5217 8.10204 9.61084 8.85629 8.85768ZM0.965904 10.6215H2.89709C3.16391 10.6215 3.39086 10.7149 3.58043 10.9047C3.76845 11.0948 3.86346 11.32 3.86346 11.5871C3.86346 11.8544 3.76845 12.0828 3.58043 12.2695C3.39086 12.4594 3.16391 12.5527 2.89709 12.5527H0.965904C0.6994 12.5527 0.471828 12.4594 0.283499 12.2695C0.0939331 12.0828 0 11.8543 0 11.5871C0 11.3199 0.0939331 11.0946 0.283499 10.9047C0.471983 10.7149 0.6994 10.6215 0.965904 10.6215ZM12.2702 19.5951C12.0808 19.4052 11.8538 19.3119 11.5873 19.3119H11.5871C11.3203 19.3119 11.0934 19.4052 10.9038 19.5951C10.7158 19.785 10.6209 20.0102 10.6209 20.2775V22.2087C10.6209 22.4758 10.7158 22.7043 10.9038 22.8911C11.0934 23.081 11.3203 23.1743 11.5871 23.1743C11.8538 23.1743 12.0808 23.081 12.2703 22.8911C12.4583 22.7043 12.5532 22.476 12.5532 22.2087V20.2775C12.5532 20.0104 12.4583 19.7851 12.2702 19.5951ZM5.44735 16.7627C5.71308 16.7627 5.94111 16.856 6.13006 17.0492C6.31855 17.2392 6.41356 17.4677 6.41356 17.7348C6.41356 17.9987 6.31731 18.2239 6.1262 18.4138L4.76139 19.7786C4.57059 19.9718 4.34425 20.0651 4.08254 20.0651C3.81541 20.0651 3.58753 19.9718 3.39967 19.785C3.20995 19.5951 3.11601 19.3666 3.11601 19.0995C3.11601 18.8291 3.2084 18.6005 3.39503 18.4138L4.76015 17.0492C4.95095 16.856 5.18023 16.7627 5.44611 16.7627H5.44735ZM14.4949 6.56914C13.6075 6.05436 12.638 5.79357 11.5871 5.79357C10.5363 5.79357 9.56696 6.0542 8.67908 6.56929C7.79073 7.09071 7.08809 7.79228 6.57084 8.68062C6.05359 9.56588 5.79373 10.5346 5.79373 11.5871C5.79373 12.6397 6.05266 13.6084 6.57084 14.4968C7.08963 15.3819 7.79228 16.0836 8.67908 16.6051C9.56619 17.1232 10.535 17.3807 11.5871 17.3807C12.6394 17.3807 13.6086 17.1232 14.4949 16.605C15.3817 16.0836 16.085 15.382 16.6031 14.4968C17.1216 13.6084 17.3803 12.6397 17.3803 11.5871C17.3803 10.5346 17.121 9.56588 16.6031 8.68062C16.0862 7.79228 15.3832 7.09071 14.4949 6.56914Z" fill="black"/>
</svg>
